# xmcd CD database file
# Copyright (C) 1993-1996 Ti Kan
#
# Track frame offsets:
# 185
# 10320
# 23152
# 36325
# 48025
# 59865
# 71980
# 84470
# 95440
# 108007
# 121615
# 135407
#
# Disc length: 1984 seconds
#
# Revision: 0
# Processed by: cddbd v1.4b41PL1 Copyright (c) Steve Scherf et al.
# Submitted via: inCDius 1.1b4
#
DISCID=9807be0c
DTITLE=John Lee Hooker - I'm John Lee Hooker
DYEAR=1900
DGENRE=
TTITLE0=Dimples
TTITLE1=Hobo Blues
TTITLE2=I'm So Excited
TTITLE3=I Love You Honey
TTITLE4=Boggie Chillun
TTITLE5=Little Wheel
TTITLE6=I'm In The Mood
TTITLE7=Maudie
TTITLE8=Crawlin' Kingsnake
TTITLE9=Every Night
TTITLE10=Time is Marching
TTITLE11=Baby Lee
EXTD=Classic recordings as they were conceived, sequenced, and originally issu
EXTD=ed by Vee-Jay Records in 1959.
EXTT0=
EXTT1=
EXTT2=
EXTT3=
EXTT4=
EXTT5=
EXTT6=
EXTT7=
EXTT8=
EXTT9=
EXTT10=
EXTT11=
PLAYORDER=
